<mxfile host="app.diagrams.net" agent="Mozilla/5.0 (Windows NT 10.0; Win64; x64) AppleWebKit/537.36 (KHTML, like Gecko) Chrome/131.0.0.0 Safari/537.36" version="26.1.1">
  <diagram name="第 1 页" id="CF6tvlMzd4y3jzRMlTY6">
    <mxGraphModel dx="1434" dy="866" grid="0" gridSize="10" guides="1" tooltips="1" connect="1" arrows="1" fold="1" page="1" pageScale="1" pageWidth="827" pageHeight="1169" background="none" math="0" shadow="0">
      <root>
        <mxCell id="0" />
        <mxCell id="1" parent="0" />
        <mxCell id="ehN_rQ0rSPrGefLZeT8r-44" style="edgeStyle=none;rounded=0;orthogonalLoop=1;jettySize=auto;html=1;exitX=1;exitY=0.5;exitDx=0;exitDy=0;entryX=0;entryY=0.5;entryDx=0;entryDy=0;endArrow=none;startFill=0;" parent="1" source="ehN_rQ0rSPrGefLZeT8r-1" target="ehN_rQ0rSPrGefLZeT8r-3" edge="1">
          <mxGeometry relative="1" as="geometry" />
        </mxCell>
        <mxCell id="ehN_rQ0rSPrGefLZeT8r-1" value="" style="ellipse;whiteSpace=wrap;html=1;fillStyle=solid;fillColor=#008a00;strokeColor=#005700;fontColor=#ffffff;" parent="1" vertex="1">
          <mxGeometry x="190" y="430" width="10" height="10" as="geometry" />
        </mxCell>
        <mxCell id="ehN_rQ0rSPrGefLZeT8r-45" style="edgeStyle=none;rounded=0;orthogonalLoop=1;jettySize=auto;html=1;exitX=1;exitY=0.5;exitDx=0;exitDy=0;entryX=0;entryY=0.5;entryDx=0;entryDy=0;endArrow=none;startFill=0;" parent="1" source="ehN_rQ0rSPrGefLZeT8r-3" target="ehN_rQ0rSPrGefLZeT8r-4" edge="1">
          <mxGeometry relative="1" as="geometry" />
        </mxCell>
        <mxCell id="ehN_rQ0rSPrGefLZeT8r-3" value="" style="ellipse;whiteSpace=wrap;html=1;fillStyle=solid;fillColor=#008a00;strokeColor=#005700;fontColor=#ffffff;" parent="1" vertex="1">
          <mxGeometry x="220" y="430" width="10" height="10" as="geometry" />
        </mxCell>
        <mxCell id="ehN_rQ0rSPrGefLZeT8r-43" style="edgeStyle=none;rounded=0;orthogonalLoop=1;jettySize=auto;html=1;exitX=1;exitY=0.5;exitDx=0;exitDy=0;entryX=0;entryY=0.5;entryDx=0;entryDy=0;endArrow=none;startFill=0;" parent="1" source="ehN_rQ0rSPrGefLZeT8r-4" target="ehN_rQ0rSPrGefLZeT8r-5" edge="1">
          <mxGeometry relative="1" as="geometry" />
        </mxCell>
        <mxCell id="ehN_rQ0rSPrGefLZeT8r-4" value="" style="ellipse;whiteSpace=wrap;html=1;fillStyle=solid;fillColor=#080808;strokeColor=#A50040;fontColor=#ffffff;" parent="1" vertex="1">
          <mxGeometry x="250" y="430" width="10" height="10" as="geometry" />
        </mxCell>
        <mxCell id="ehN_rQ0rSPrGefLZeT8r-46" style="edgeStyle=none;rounded=0;orthogonalLoop=1;jettySize=auto;html=1;entryX=0;entryY=0.5;entryDx=0;entryDy=0;endArrow=none;startFill=0;" parent="1" source="ehN_rQ0rSPrGefLZeT8r-5" target="ehN_rQ0rSPrGefLZeT8r-6" edge="1">
          <mxGeometry relative="1" as="geometry" />
        </mxCell>
        <mxCell id="ehN_rQ0rSPrGefLZeT8r-5" value="" style="ellipse;whiteSpace=wrap;html=1;fillStyle=solid;fillColor=#d80073;strokeColor=#A50040;fontColor=#ffffff;" parent="1" vertex="1">
          <mxGeometry x="280" y="430" width="10" height="10" as="geometry" />
        </mxCell>
        <mxCell id="ehN_rQ0rSPrGefLZeT8r-48" style="edgeStyle=none;rounded=0;orthogonalLoop=1;jettySize=auto;html=1;exitX=1;exitY=0.5;exitDx=0;exitDy=0;entryX=0.339;entryY=0.956;entryDx=0;entryDy=0;endArrow=none;startFill=0;entryPerimeter=0;" parent="1" source="ehN_rQ0rSPrGefLZeT8r-6" target="ehN_rQ0rSPrGefLZeT8r-7" edge="1">
          <mxGeometry relative="1" as="geometry">
            <Array as="points">
              <mxPoint x="326" y="430" />
            </Array>
          </mxGeometry>
        </mxCell>
        <mxCell id="ehN_rQ0rSPrGefLZeT8r-6" value="" style="ellipse;whiteSpace=wrap;html=1;fillStyle=solid;fillColor=#d80073;strokeColor=#A50040;fontColor=#ffffff;" parent="1" vertex="1">
          <mxGeometry x="310" y="430" width="10" height="10" as="geometry" />
        </mxCell>
        <mxCell id="ehN_rQ0rSPrGefLZeT8r-49" style="edgeStyle=none;rounded=0;orthogonalLoop=1;jettySize=auto;html=1;exitX=1;exitY=0;exitDx=0;exitDy=0;entryX=0.5;entryY=1;entryDx=0;entryDy=0;endArrow=none;startFill=0;" parent="1" source="ehN_rQ0rSPrGefLZeT8r-7" target="ehN_rQ0rSPrGefLZeT8r-8" edge="1">
          <mxGeometry relative="1" as="geometry">
            <Array as="points">
              <mxPoint x="343" y="402" />
            </Array>
          </mxGeometry>
        </mxCell>
        <mxCell id="ehN_rQ0rSPrGefLZeT8r-7" value="" style="ellipse;whiteSpace=wrap;html=1;fillStyle=solid;fillColor=#d80073;strokeColor=#A50040;fontColor=#ffffff;" parent="1" vertex="1">
          <mxGeometry x="330" y="410" width="10" height="10" as="geometry" />
        </mxCell>
        <mxCell id="ehN_rQ0rSPrGefLZeT8r-50" style="edgeStyle=none;rounded=0;orthogonalLoop=1;jettySize=auto;html=1;exitX=0.5;exitY=0;exitDx=0;exitDy=0;entryX=0.5;entryY=1;entryDx=0;entryDy=0;endArrow=none;startFill=0;" parent="1" source="ehN_rQ0rSPrGefLZeT8r-8" target="ehN_rQ0rSPrGefLZeT8r-9" edge="1">
          <mxGeometry relative="1" as="geometry" />
        </mxCell>
        <mxCell id="ehN_rQ0rSPrGefLZeT8r-8" value="" style="ellipse;whiteSpace=wrap;html=1;fillStyle=solid;fillColor=#d80073;strokeColor=#A50040;fontColor=#ffffff;" parent="1" vertex="1">
          <mxGeometry x="340" y="380" width="10" height="10" as="geometry" />
        </mxCell>
        <mxCell id="ehN_rQ0rSPrGefLZeT8r-51" style="edgeStyle=none;rounded=0;orthogonalLoop=1;jettySize=auto;html=1;exitX=0.5;exitY=0;exitDx=0;exitDy=0;entryX=0.5;entryY=1;entryDx=0;entryDy=0;endArrow=none;startFill=0;" parent="1" source="ehN_rQ0rSPrGefLZeT8r-9" target="ehN_rQ0rSPrGefLZeT8r-10" edge="1">
          <mxGeometry relative="1" as="geometry" />
        </mxCell>
        <mxCell id="ehN_rQ0rSPrGefLZeT8r-9" value="" style="ellipse;whiteSpace=wrap;html=1;fillStyle=solid;fillColor=#d80073;strokeColor=#A50040;fontColor=#ffffff;" parent="1" vertex="1">
          <mxGeometry x="340" y="350" width="10" height="10" as="geometry" />
        </mxCell>
        <mxCell id="ehN_rQ0rSPrGefLZeT8r-10" value="" style="ellipse;whiteSpace=wrap;html=1;fillStyle=solid;fillColor=#d80073;strokeColor=#A50040;fontColor=#ffffff;" parent="1" vertex="1">
          <mxGeometry x="340" y="320" width="10" height="10" as="geometry" />
        </mxCell>
        <mxCell id="ehN_rQ0rSPrGefLZeT8r-11" value="" style="ellipse;whiteSpace=wrap;html=1;fillStyle=solid;fillColor=#0050ef;strokeColor=#001DBC;fontColor=#ffffff;rotation=15;direction=south;" parent="1" vertex="1">
          <mxGeometry x="352" y="290" width="10" height="10" as="geometry" />
        </mxCell>
        <mxCell id="ehN_rQ0rSPrGefLZeT8r-12" value="" style="ellipse;whiteSpace=wrap;html=1;fillStyle=solid;fillColor=#0050ef;strokeColor=#001DBC;fontColor=#ffffff;" parent="1" vertex="1">
          <mxGeometry x="378" y="270" width="10" height="10" as="geometry" />
        </mxCell>
        <mxCell id="ehN_rQ0rSPrGefLZeT8r-13" value="" style="ellipse;whiteSpace=wrap;html=1;fillStyle=solid;fillColor=#0050ef;strokeColor=#001DBC;fontColor=#ffffff;" parent="1" vertex="1">
          <mxGeometry x="414" y="268" width="10" height="10" as="geometry" />
        </mxCell>
        <mxCell id="ehN_rQ0rSPrGefLZeT8r-14" value="" style="ellipse;whiteSpace=wrap;html=1;fillStyle=solid;fillColor=#0050ef;strokeColor=#001DBC;fontColor=#ffffff;" parent="1" vertex="1">
          <mxGeometry x="450" y="268" width="10" height="10" as="geometry" />
        </mxCell>
        <mxCell id="ehN_rQ0rSPrGefLZeT8r-16" value="" style="ellipse;whiteSpace=wrap;html=1;fillStyle=solid;fillColor=#0050ef;strokeColor=#001DBC;fontColor=#ffffff;" parent="1" vertex="1">
          <mxGeometry x="472" y="287" width="10" height="10" as="geometry" />
        </mxCell>
        <mxCell id="ehN_rQ0rSPrGefLZeT8r-20" value="" style="ellipse;whiteSpace=wrap;html=1;fillStyle=solid;fillColor=#0050ef;strokeColor=#001DBC;fontColor=#ffffff;" parent="1" vertex="1">
          <mxGeometry x="482" y="318" width="10" height="10" as="geometry" />
        </mxCell>
        <mxCell id="ehN_rQ0rSPrGefLZeT8r-21" value="" style="ellipse;whiteSpace=wrap;html=1;fillStyle=solid;fillColor=#0050ef;strokeColor=#001DBC;fontColor=#ffffff;" parent="1" vertex="1">
          <mxGeometry x="482" y="350" width="10" height="10" as="geometry" />
        </mxCell>
        <mxCell id="ehN_rQ0rSPrGefLZeT8r-24" style="edgeStyle=orthogonalEdgeStyle;rounded=0;orthogonalLoop=1;jettySize=auto;html=1;exitX=0.5;exitY=1;exitDx=0;exitDy=0;entryX=0.5;entryY=0;entryDx=0;entryDy=0;" parent="1" source="ehN_rQ0rSPrGefLZeT8r-23" target="ehN_rQ0rSPrGefLZeT8r-4" edge="1">
          <mxGeometry relative="1" as="geometry" />
        </mxCell>
        <mxCell id="ehN_rQ0rSPrGefLZeT8r-23" value="pos" style="text;html=1;align=center;verticalAlign=middle;whiteSpace=wrap;rounded=0;" parent="1" vertex="1">
          <mxGeometry x="213" y="330" width="84" height="49" as="geometry" />
        </mxCell>
        <mxCell id="ehN_rQ0rSPrGefLZeT8r-25" value="" style="ellipse;whiteSpace=wrap;html=1;fillStyle=solid;fillColor=#0050ef;strokeColor=#001DBC;fontColor=#ffffff;" parent="1" vertex="1">
          <mxGeometry x="160" y="430" width="10" height="10" as="geometry" />
        </mxCell>
        <mxCell id="ehN_rQ0rSPrGefLZeT8r-26" value="" style="ellipse;whiteSpace=wrap;html=1;fillStyle=solid;fillColor=#0050ef;strokeColor=#001DBC;fontColor=#ffffff;" parent="1" vertex="1">
          <mxGeometry x="133" y="430" width="10" height="10" as="geometry" />
        </mxCell>
        <mxCell id="ehN_rQ0rSPrGefLZeT8r-64" style="edgeStyle=none;rounded=0;orthogonalLoop=1;jettySize=auto;html=1;endArrow=none;startFill=0;" parent="1" edge="1">
          <mxGeometry relative="1" as="geometry">
            <mxPoint x="338.58620689655186" y="395.4999999999999" as="targetPoint" />
            <mxPoint x="308" y="395.4999999999999" as="sourcePoint" />
          </mxGeometry>
        </mxCell>
        <mxCell id="ehN_rQ0rSPrGefLZeT8r-29" value="L2" style="text;html=1;align=center;verticalAlign=middle;whiteSpace=wrap;rounded=0;" parent="1" vertex="1">
          <mxGeometry x="271" y="379" width="48" height="35" as="geometry" />
        </mxCell>
        <mxCell id="ehN_rQ0rSPrGefLZeT8r-63" style="edgeStyle=none;rounded=0;orthogonalLoop=1;jettySize=auto;html=1;exitX=0.5;exitY=1;exitDx=0;exitDy=0;endArrow=none;startFill=0;" parent="1" source="ehN_rQ0rSPrGefLZeT8r-60" edge="1">
          <mxGeometry relative="1" as="geometry">
            <mxPoint x="213.0689655172414" y="429.2068965517242" as="targetPoint" />
          </mxGeometry>
        </mxCell>
        <mxCell id="ehN_rQ0rSPrGefLZeT8r-60" value="L1" style="text;html=1;align=center;verticalAlign=middle;whiteSpace=wrap;rounded=0;" parent="1" vertex="1">
          <mxGeometry x="183" y="370" width="60" height="30" as="geometry" />
        </mxCell>
        <mxCell id="ehN_rQ0rSPrGefLZeT8r-76" style="edgeStyle=none;rounded=0;orthogonalLoop=1;jettySize=auto;html=1;exitX=1;exitY=0;exitDx=0;exitDy=0;entryX=0;entryY=1;entryDx=0;entryDy=0;endArrow=none;startFill=0;dashed=1;dashPattern=12 12;" parent="1" source="ehN_rQ0rSPrGefLZeT8r-65" target="ehN_rQ0rSPrGefLZeT8r-69" edge="1">
          <mxGeometry relative="1" as="geometry" />
        </mxCell>
        <mxCell id="ehN_rQ0rSPrGefLZeT8r-65" value="" style="ellipse;whiteSpace=wrap;html=1;fillStyle=solid;fillColor=#d80073;strokeColor=#A50040;fontColor=#ffffff;" parent="1" vertex="1">
          <mxGeometry x="245" y="632" width="10" height="10" as="geometry" />
        </mxCell>
        <mxCell id="ehN_rQ0rSPrGefLZeT8r-73" style="edgeStyle=none;rounded=0;orthogonalLoop=1;jettySize=auto;html=1;exitX=0;exitY=0.5;exitDx=0;exitDy=0;entryX=1;entryY=0.5;entryDx=0;entryDy=0;" parent="1" source="ehN_rQ0rSPrGefLZeT8r-66" target="ehN_rQ0rSPrGefLZeT8r-65" edge="1">
          <mxGeometry relative="1" as="geometry" />
        </mxCell>
        <mxCell id="ehN_rQ0rSPrGefLZeT8r-74" style="edgeStyle=none;rounded=0;orthogonalLoop=1;jettySize=auto;html=1;exitX=1;exitY=0;exitDx=0;exitDy=0;entryX=0.5;entryY=1;entryDx=0;entryDy=0;" parent="1" source="ehN_rQ0rSPrGefLZeT8r-66" target="ehN_rQ0rSPrGefLZeT8r-67" edge="1">
          <mxGeometry relative="1" as="geometry" />
        </mxCell>
        <mxCell id="ehN_rQ0rSPrGefLZeT8r-75" style="edgeStyle=none;rounded=0;orthogonalLoop=1;jettySize=auto;html=1;exitX=0;exitY=0;exitDx=0;exitDy=0;entryX=0.5;entryY=1;entryDx=0;entryDy=0;" parent="1" source="ehN_rQ0rSPrGefLZeT8r-66" target="ehN_rQ0rSPrGefLZeT8r-69" edge="1">
          <mxGeometry relative="1" as="geometry" />
        </mxCell>
        <mxCell id="ehN_rQ0rSPrGefLZeT8r-66" value="" style="ellipse;whiteSpace=wrap;html=1;fillStyle=solid;fillColor=#d80073;strokeColor=#A50040;fontColor=#ffffff;" parent="1" vertex="1">
          <mxGeometry x="297" y="632" width="10" height="10" as="geometry" />
        </mxCell>
        <mxCell id="ehN_rQ0rSPrGefLZeT8r-67" value="" style="ellipse;whiteSpace=wrap;html=1;fillStyle=solid;fillColor=#d80073;strokeColor=#A50040;fontColor=#ffffff;" parent="1" vertex="1">
          <mxGeometry x="327" y="585" width="10" height="10" as="geometry" />
        </mxCell>
        <mxCell id="ehN_rQ0rSPrGefLZeT8r-77" style="edgeStyle=none;rounded=0;orthogonalLoop=1;jettySize=auto;html=1;exitX=1;exitY=0.5;exitDx=0;exitDy=0;entryX=0;entryY=0.5;entryDx=0;entryDy=0;endArrow=none;startFill=0;dashed=1;dashPattern=12 12;" parent="1" source="ehN_rQ0rSPrGefLZeT8r-69" target="ehN_rQ0rSPrGefLZeT8r-67" edge="1">
          <mxGeometry relative="1" as="geometry" />
        </mxCell>
        <mxCell id="ehN_rQ0rSPrGefLZeT8r-69" value="" style="ellipse;whiteSpace=wrap;html=1;fillStyle=solid;fillColor=#008a00;strokeColor=#005700;fontColor=#ffffff;" parent="1" vertex="1">
          <mxGeometry x="274" y="585" width="10" height="10" as="geometry" />
        </mxCell>
        <mxCell id="ehN_rQ0rSPrGefLZeT8r-78" value="P0" style="text;html=1;align=center;verticalAlign=middle;whiteSpace=wrap;rounded=0;" parent="1" vertex="1">
          <mxGeometry x="220" y="642" width="60" height="30" as="geometry" />
        </mxCell>
        <mxCell id="ehN_rQ0rSPrGefLZeT8r-79" value="P1" style="text;html=1;align=center;verticalAlign=middle;whiteSpace=wrap;rounded=0;" parent="1" vertex="1">
          <mxGeometry x="277" y="642" width="60" height="30" as="geometry" />
        </mxCell>
        <mxCell id="ehN_rQ0rSPrGefLZeT8r-80" value="P2" style="text;html=1;align=center;verticalAlign=middle;whiteSpace=wrap;rounded=0;" parent="1" vertex="1">
          <mxGeometry x="355.5" y="791" width="42" height="30" as="geometry" />
        </mxCell>
        <mxCell id="ehN_rQ0rSPrGefLZeT8r-81" value="P3" style="text;html=1;align=center;verticalAlign=middle;whiteSpace=wrap;rounded=0;" parent="1" vertex="1">
          <mxGeometry x="247" y="559" width="60" height="30" as="geometry" />
        </mxCell>
        <mxCell id="ehN_rQ0rSPrGefLZeT8r-85" value="" style="ellipse;whiteSpace=wrap;html=1;fillStyle=solid;fillColor=#d80073;strokeColor=#A50040;fontColor=#ffffff;" parent="1" vertex="1">
          <mxGeometry x="273.5" y="858" width="10" height="10" as="geometry" />
        </mxCell>
        <mxCell id="ehN_rQ0rSPrGefLZeT8r-86" style="edgeStyle=none;rounded=0;orthogonalLoop=1;jettySize=auto;html=1;exitX=0;exitY=0.5;exitDx=0;exitDy=0;entryX=1;entryY=0.5;entryDx=0;entryDy=0;endArrow=none;startFill=0;" parent="1" source="ehN_rQ0rSPrGefLZeT8r-89" target="ehN_rQ0rSPrGefLZeT8r-85" edge="1">
          <mxGeometry relative="1" as="geometry" />
        </mxCell>
        <mxCell id="ehN_rQ0rSPrGefLZeT8r-87" style="edgeStyle=none;rounded=0;orthogonalLoop=1;jettySize=auto;html=1;exitX=1;exitY=0;exitDx=0;exitDy=0;entryX=0.5;entryY=1;entryDx=0;entryDy=0;endArrow=none;startFill=0;" parent="1" source="ehN_rQ0rSPrGefLZeT8r-89" target="ehN_rQ0rSPrGefLZeT8r-90" edge="1">
          <mxGeometry relative="1" as="geometry" />
        </mxCell>
        <mxCell id="ehN_rQ0rSPrGefLZeT8r-89" value="" style="ellipse;whiteSpace=wrap;html=1;fillStyle=solid;fillColor=#d80073;strokeColor=#A50040;fontColor=#ffffff;" parent="1" vertex="1">
          <mxGeometry x="325.5" y="858" width="10" height="10" as="geometry" />
        </mxCell>
        <mxCell id="ehN_rQ0rSPrGefLZeT8r-90" value="" style="ellipse;whiteSpace=wrap;html=1;fillStyle=solid;fillColor=#d80073;strokeColor=#A50040;fontColor=#ffffff;" parent="1" vertex="1">
          <mxGeometry x="355.5" y="811" width="10" height="10" as="geometry" />
        </mxCell>
        <mxCell id="ehN_rQ0rSPrGefLZeT8r-93" value="P0" style="text;html=1;align=center;verticalAlign=middle;whiteSpace=wrap;rounded=0;" parent="1" vertex="1">
          <mxGeometry x="248.5" y="868" width="60" height="30" as="geometry" />
        </mxCell>
        <mxCell id="ehN_rQ0rSPrGefLZeT8r-94" value="P1" style="text;html=1;align=center;verticalAlign=middle;whiteSpace=wrap;rounded=0;" parent="1" vertex="1">
          <mxGeometry x="305.5" y="868" width="60" height="30" as="geometry" />
        </mxCell>
        <mxCell id="ehN_rQ0rSPrGefLZeT8r-105" style="edgeStyle=none;rounded=0;orthogonalLoop=1;jettySize=auto;html=1;entryX=1;entryY=0.5;entryDx=0;entryDy=0;" parent="1" source="ehN_rQ0rSPrGefLZeT8r-96" target="ehN_rQ0rSPrGefLZeT8r-97" edge="1">
          <mxGeometry relative="1" as="geometry" />
        </mxCell>
        <mxCell id="ehN_rQ0rSPrGefLZeT8r-96" value="" style="ellipse;whiteSpace=wrap;html=1;fillStyle=solid;fillColor=#0050ef;strokeColor=#001DBC;fontColor=#ffffff;" parent="1" vertex="1">
          <mxGeometry x="261" y="840" width="10" height="10" as="geometry" />
        </mxCell>
        <mxCell id="ehN_rQ0rSPrGefLZeT8r-109" style="edgeStyle=none;rounded=0;orthogonalLoop=1;jettySize=auto;html=1;exitX=1;exitY=0.5;exitDx=0;exitDy=0;entryX=0;entryY=0.5;entryDx=0;entryDy=0;endArrow=none;startFill=0;" parent="1" source="ehN_rQ0rSPrGefLZeT8r-97" target="ehN_rQ0rSPrGefLZeT8r-98" edge="1">
          <mxGeometry relative="1" as="geometry" />
        </mxCell>
        <mxCell id="ehN_rQ0rSPrGefLZeT8r-116" style="edgeStyle=none;rounded=0;orthogonalLoop=1;jettySize=auto;html=1;exitX=1;exitY=1;exitDx=0;exitDy=0;entryX=0.5;entryY=0;entryDx=0;entryDy=0;endArrow=none;startFill=0;" parent="1" source="ehN_rQ0rSPrGefLZeT8r-97" target="ehN_rQ0rSPrGefLZeT8r-89" edge="1">
          <mxGeometry relative="1" as="geometry" />
        </mxCell>
        <mxCell id="ehN_rQ0rSPrGefLZeT8r-97" value="" style="ellipse;whiteSpace=wrap;html=1;fillStyle=solid;fillColor=#0050ef;strokeColor=#001DBC;fontColor=#ffffff;" parent="1" vertex="1">
          <mxGeometry x="316.5" y="835" width="10" height="10" as="geometry" />
        </mxCell>
        <mxCell id="ehN_rQ0rSPrGefLZeT8r-98" value="" style="ellipse;whiteSpace=wrap;html=1;fillStyle=solid;fillColor=#0050ef;strokeColor=#001DBC;fontColor=#ffffff;" parent="1" vertex="1">
          <mxGeometry x="368" y="831" width="10" height="10" as="geometry" />
        </mxCell>
        <mxCell id="ehN_rQ0rSPrGefLZeT8r-102" value="P0&#39;" style="text;html=1;align=center;verticalAlign=middle;whiteSpace=wrap;rounded=0;" parent="1" vertex="1">
          <mxGeometry x="214" y="820" width="43" height="30" as="geometry" />
        </mxCell>
        <mxCell id="ehN_rQ0rSPrGefLZeT8r-103" value="P1&#39;" style="text;html=1;align=center;verticalAlign=middle;whiteSpace=wrap;rounded=0;" parent="1" vertex="1">
          <mxGeometry x="280" y="804" width="60" height="30" as="geometry" />
        </mxCell>
        <mxCell id="ehN_rQ0rSPrGefLZeT8r-104" value="P2&#39;" style="text;html=1;align=center;verticalAlign=middle;whiteSpace=wrap;rounded=0;" parent="1" vertex="1">
          <mxGeometry x="375" y="825" width="49" height="22" as="geometry" />
        </mxCell>
        <mxCell id="ehN_rQ0rSPrGefLZeT8r-111" style="edgeStyle=none;rounded=0;orthogonalLoop=1;jettySize=auto;html=1;exitX=1;exitY=1;exitDx=0;exitDy=0;entryX=0;entryY=0;entryDx=0;entryDy=0;endArrow=none;startFill=0;" parent="1" source="ehN_rQ0rSPrGefLZeT8r-96" target="ehN_rQ0rSPrGefLZeT8r-85" edge="1">
          <mxGeometry relative="1" as="geometry" />
        </mxCell>
        <mxCell id="ehN_rQ0rSPrGefLZeT8r-118" style="edgeStyle=none;rounded=0;orthogonalLoop=1;jettySize=auto;html=1;exitX=1;exitY=1;exitDx=0;exitDy=0;entryX=0.342;entryY=-0.019;entryDx=0;entryDy=0;entryPerimeter=0;endArrow=none;startFill=0;" parent="1" source="ehN_rQ0rSPrGefLZeT8r-90" target="ehN_rQ0rSPrGefLZeT8r-98" edge="1">
          <mxGeometry relative="1" as="geometry" />
        </mxCell>
        <mxCell id="ehN_rQ0rSPrGefLZeT8r-119" value="" style="endArrow=classic;html=1;rounded=0;" parent="1" edge="1">
          <mxGeometry width="50" height="50" relative="1" as="geometry">
            <mxPoint x="238" y="1069" as="sourcePoint" />
            <mxPoint x="372" y="1068" as="targetPoint" />
          </mxGeometry>
        </mxCell>
        <mxCell id="ehN_rQ0rSPrGefLZeT8r-120" value="" style="endArrow=classic;html=1;rounded=0;" parent="1" edge="1">
          <mxGeometry width="50" height="50" relative="1" as="geometry">
            <mxPoint x="245" y="1078" as="sourcePoint" />
            <mxPoint x="245" y="986" as="targetPoint" />
          </mxGeometry>
        </mxCell>
        <mxCell id="ehN_rQ0rSPrGefLZeT8r-121" value="" style="curved=1;endArrow=none;html=1;rounded=0;startFill=0;" parent="1" edge="1">
          <mxGeometry width="50" height="50" relative="1" as="geometry">
            <mxPoint x="260" y="1046" as="sourcePoint" />
            <mxPoint x="357" y="1013" as="targetPoint" />
            <Array as="points">
              <mxPoint x="272" y="1012" />
              <mxPoint x="283" y="1013" />
              <mxPoint x="311" y="1051" />
              <mxPoint x="324" y="1037" />
              <mxPoint x="330" y="1017" />
              <mxPoint x="339" y="1006" />
              <mxPoint x="350" y="1004" />
            </Array>
          </mxGeometry>
        </mxCell>
        <mxCell id="ehN_rQ0rSPrGefLZeT8r-123" value="" style="endArrow=classic;html=1;rounded=0;fillColor=#d80073;strokeColor=#FF6666;" parent="1" edge="1">
          <mxGeometry width="50" height="50" relative="1" as="geometry">
            <mxPoint x="312" y="1049" as="sourcePoint" />
            <mxPoint x="331" y="1033" as="targetPoint" />
          </mxGeometry>
        </mxCell>
        <mxCell id="ehN_rQ0rSPrGefLZeT8r-124" value="" style="endArrow=classic;html=1;rounded=0;fillColor=#d80073;strokeColor=#FF6666;" parent="1" edge="1">
          <mxGeometry width="50" height="50" relative="1" as="geometry">
            <mxPoint x="317" y="1047" as="sourcePoint" />
            <mxPoint x="307" y="1032" as="targetPoint" />
          </mxGeometry>
        </mxCell>
        <mxCell id="ehN_rQ0rSPrGefLZeT8r-125" value="" style="endArrow=classic;html=1;rounded=0;endFill=1;fillColor=#0050ef;strokeColor=#001DBC;" parent="1" edge="1">
          <mxGeometry width="50" height="50" relative="1" as="geometry">
            <mxPoint x="301" y="1021" as="sourcePoint" />
            <mxPoint x="323" y="1003" as="targetPoint" />
          </mxGeometry>
        </mxCell>
        <mxCell id="ehN_rQ0rSPrGefLZeT8r-126" value="" style="endArrow=none;dashed=1;html=1;dashPattern=1 3;strokeWidth=2;rounded=0;" parent="1" edge="1">
          <mxGeometry width="50" height="50" relative="1" as="geometry">
            <mxPoint x="294" y="1022" as="sourcePoint" />
            <mxPoint x="340" y="1021" as="targetPoint" />
          </mxGeometry>
        </mxCell>
        <mxCell id="ehN_rQ0rSPrGefLZeT8r-131" value="" style="shape=stencil(rVfBbtswDP0aXwlJlETx3HX/UaDpEixLijTb2r8fPUOJSU8cBuzmOHwW+chHUhM+vO2fXndTCm/Xy/nr7ufh+bqf8NOU0uG0310OV3ma8HHCh5fzZfflcv5+el5+vz7NlvPTt/OP+QvvCy4iYJpRKXwsbwKU+PvF58X+eDit7BNDiMq+QEpj+5whkrKPCQqOAaUCNwVIAihjQCUIQQEQIfEYQBVQu5QTkANoGZJ2qURoDkkcIFUNYKDgAAhQs0rRZYkbVB0DS1TeCRWKzrN8Ijq0MkI1AIbsuRQsSzGEnpo/81qhVXuEx2vDzuIqiNYcQISIGkAuTSQxZg2Q+nZoogako+YE7AhCTkjmBFGcF0MA0iy1Brm6LEXWgNqdHOUh6WJqBchJdWOozQKyJwiEUC2gedVXIRQNoN54RoLAYlkicgCiyGTzwHkMWFXzDYG+5tj2Pimm4jSauTg35eoCMlQdtZwZvKgj5I2qm9f7yLZjAbBXfXmjUe7lNdIoBxu05xLdPF7Rys4JdGsSq8SRU0wCYJO42MtrpNFoqo975/k/ACpQNxMCHUBtEDRLpfmAaF3K7HYyGYJZV2uWqBwFyZg1eUCRnOOSDPKog07odoEkLpkZRK5LpQ/+1XZSHUnjxt7fBJKdPzG4lSd86IAZ0BGb8K3DpT5RB+amgdU+sgfmdk9yfY92/mPfggbUmA1G+oCj+txn3n1P9cxr3xnv5uhtFj2Ld3Nvc5Gsx42904H+dcv+u7083Ff6l8PxuNwI1v/bK4C8Wq4P+PgL);lineShape=1;strokeColor=default;" parent="1" vertex="1">
          <mxGeometry x="308.60398294705635" y="1015.0491658543524" width="3.5631265971414905" height="5.180796962303652" as="geometry" />
        </mxCell>
        <mxCell id="ehN_rQ0rSPrGefLZeT8r-133" value="" style="shape=stencil(lVfLctswDPwaXTHgGzyn6X9kJk6tqWtnHPf194Wq0BEhaz25yTKWBHcXADWEh7f90+tu8Px2OZ++736Pz5f9EL4M3o/H/e48XvRpCI9DeHg5nXffzqefx+f59+vTFDk9/Tj9mlb4M+O8UKgTyvPf+U0gif9ffJ3jD+NxER8KSR/vAhW3DYiZJHQA76jyNiAlyrEHVEogpZwp9SlFRzlsA0qm0u+QmCo4g2TiHpCZRLYBNVLyHaAEiuAMjpmYO0T15EFOtVLoedVNMwLkRvsVoDxUAPBUpQcIJcCrFKqlB1QohHhrvgUPW9JJtFskoERxTajFISLIKQtxsjTlBADJukmFiBjg+lMr04wNHnMHEOUVKJcrxd5+Kg2sCK1hs4NaHtFaiXv3SYJ2FTVntgCH7MotgQWg4Jp770OLQ7sMALLaoZID5lOrSU9rdRQxoBgvhbbEbcCqu6r5YEqxmXlhb0Y6aEoGoI0EmE+F82IB72V+2xrSymUBEJDS1BpXZxBsb2f6TKEAWNICCkY4dSvQYSpRs4MnuVPTnwO4JtN1QmhrA27VsWimnJ6qgnqIxbaZpI0MCBeybQIxtRlzE+BXOoTU2sJtANtG5jVJwJJz5PsdnLoLKO3acteShiqwDVcfAUpXMzrdWd00pEgBhOu8NxclqsAQWvlmdlJBZdmqvIUzzN0xZW/iPYqPlko8yF2x5KgWoCInZdnEIyMoPc4beiJaP7flPthPKP6T9+b78frwcUl/GQ+H+Y6//N9e6vXV/EEQHv8B);lineShape=1;strokeColor=default;" parent="1" vertex="1">
          <mxGeometry x="322.4723985898395" y="1039.7493874206716" width="2.443328591053715" height="5.700308262000564" as="geometry" />
        </mxCell>
        <mxCell id="ehN_rQ0rSPrGefLZeT8r-137" value="&lt;p style=&quot;text-indent:24.0000pt;layout-grid-mode:char;line-height:150%;&quot; class=&quot;MsoNormal&quot;&gt;&lt;span style=&quot;font-family: Arial;&quot;&gt;&lt;font style=&quot;font-size: 10px;&quot;&gt;θ&lt;/font&gt;&lt;/span&gt;&lt;span style=&quot;mso-spacerun:&#39;yes&#39;;font-family:Calibri;mso-fareast-font-family:宋体;&lt;br/&gt;mso-hansi-font-family:&#39;Cambria Math&#39;;mso-bidi-font-family:&#39;Times New Roman&#39;;mso-ansi-font-weight:normal;&lt;br/&gt;mso-ansi-font-style:normal;font-size:10.5000pt;mso-font-kerning:1.0000pt;&quot;&gt;&lt;/span&gt;&lt;/p&gt;" style="text;html=1;align=center;verticalAlign=middle;whiteSpace=wrap;rounded=0;" parent="1" vertex="1">
          <mxGeometry x="282.47" y="1007" width="40" height="16" as="geometry" />
        </mxCell>
        <mxCell id="ehN_rQ0rSPrGefLZeT8r-138" value="&lt;p style=&quot;text-indent:24.0000pt;layout-grid-mode:char;line-height:150%;&quot; class=&quot;MsoNormal&quot;&gt;&lt;span style=&quot;font-family: Arial;&quot;&gt;&lt;font style=&quot;font-size: 10px;&quot;&gt;θr&lt;/font&gt;&lt;/span&gt;&lt;span style=&quot;mso-spacerun:&#39;yes&#39;;font-family:Calibri;mso-fareast-font-family:宋体;&lt;br/&gt;mso-hansi-font-family:&#39;Cambria Math&#39;;mso-bidi-font-family:&#39;Times New Roman&#39;;mso-ansi-font-weight:normal;&lt;br/&gt;mso-ansi-font-style:normal;font-size:10.5000pt;mso-font-kerning:1.0000pt;&quot;&gt;&lt;/span&gt;&lt;/p&gt;" style="text;html=1;align=center;verticalAlign=middle;whiteSpace=wrap;rounded=0;" parent="1" vertex="1">
          <mxGeometry x="304" y="1037" width="26" height="6" as="geometry" />
        </mxCell>
        <mxCell id="ehN_rQ0rSPrGefLZeT8r-141" value="" style="endArrow=classic;html=1;rounded=0;endSize=2;" parent="1" edge="1">
          <mxGeometry width="50" height="50" relative="1" as="geometry">
            <mxPoint x="313" y="989" as="sourcePoint" />
            <mxPoint x="329" y="989" as="targetPoint" />
          </mxGeometry>
        </mxCell>
        <mxCell id="ehN_rQ0rSPrGefLZeT8r-143" value="v" style="text;html=1;align=center;verticalAlign=middle;whiteSpace=wrap;rounded=0;" parent="1" vertex="1">
          <mxGeometry x="310" y="992" width="18" height="9" as="geometry" />
        </mxCell>
        <mxCell id="ehN_rQ0rSPrGefLZeT8r-144" value="s&#39;" style="text;html=1;align=center;verticalAlign=middle;whiteSpace=wrap;rounded=0;" parent="1" vertex="1">
          <mxGeometry x="335.5" y="993" width="60" height="30" as="geometry" />
        </mxCell>
        <mxCell id="ehN_rQ0rSPrGefLZeT8r-145" value="" style="endArrow=none;html=1;rounded=0;dashed=1;" parent="1" edge="1">
          <mxGeometry width="50" height="50" relative="1" as="geometry">
            <mxPoint x="313.5" y="1043" as="sourcePoint" />
            <mxPoint x="300.5" y="1023.75" as="targetPoint" />
          </mxGeometry>
        </mxCell>
        <mxCell id="ehN_rQ0rSPrGefLZeT8r-152" style="edgeStyle=none;rounded=0;orthogonalLoop=1;jettySize=auto;html=1;exitX=0.935;exitY=0.056;exitDx=0;exitDy=0;endArrow=none;startFill=0;fillColor=#60a917;strokeColor=#2D7600;exitPerimeter=0;" parent="1" source="ehN_rQ0rSPrGefLZeT8r-146" edge="1">
          <mxGeometry relative="1" as="geometry">
            <mxPoint x="304" y="1030" as="targetPoint" />
          </mxGeometry>
        </mxCell>
        <mxCell id="ehN_rQ0rSPrGefLZeT8r-146" value="ed" style="text;html=1;align=center;verticalAlign=middle;whiteSpace=wrap;rounded=0;" parent="1" vertex="1">
          <mxGeometry x="269" y="1039.7499999999998" width="28" height="21.4" as="geometry" />
        </mxCell>
        <mxCell id="ehN_rQ0rSPrGefLZeT8r-155" value="&lt;p style=&quot;margin-left:30.0000pt;layout-grid-mode:char;line-height:150%;&quot; class=&quot;MsoNormal&quot;&gt;&lt;br&gt;&lt;/p&gt;" style="text;html=1;align=center;verticalAlign=middle;resizable=0;points=[];autosize=1;strokeColor=none;fillColor=none;" parent="1" vertex="1">
          <mxGeometry x="285" y="1005" width="58" height="54" as="geometry" />
        </mxCell>
        <mxCell id="ehN_rQ0rSPrGefLZeT8r-157" value="nr" style="text;html=1;align=center;verticalAlign=middle;resizable=0;points=[];autosize=1;strokeColor=none;fillColor=none;" parent="1" vertex="1">
          <mxGeometry x="299" y="1017" width="29" height="26" as="geometry" />
        </mxCell>
        <mxCell id="ehN_rQ0rSPrGefLZeT8r-158" value="" style="endArrow=none;dashed=1;html=1;rounded=0;" parent="1" edge="1">
          <mxGeometry width="50" height="50" relative="1" as="geometry">
            <mxPoint x="316.5" y="1045.7" as="sourcePoint" />
            <mxPoint x="341.25" y="1045.45" as="targetPoint" />
          </mxGeometry>
        </mxCell>
        <mxCell id="ehN_rQ0rSPrGefLZeT8r-159" value="tr" style="text;html=1;align=center;verticalAlign=middle;resizable=0;points=[];autosize=1;strokeColor=none;fillColor=none;" parent="1" vertex="1">
          <mxGeometry x="322.47" y="1019" width="25" height="26" as="geometry" />
        </mxCell>
      </root>
    </mxGraphModel>
  </diagram>
</mxfile>
